<svg width="144" height="145" viewBox="0 0 144 145" fill="none" xmlns="http://www.w3.org/2000/svg">
<path d="M129.54 135.501H14.4599C13.0119 135.501 11.6231 134.926 10.5992 133.902C9.57524 132.878 9 131.489 9 130.041V125.154H135V130.041C135 131.489 134.425 132.878 133.401 133.902C132.377 134.926 130.988 135.501 129.54 135.501Z" fill="#2196F3"/>
<path d="M19.0176 125.153V81.357C19.0169 80.783 19.1293 80.2144 19.3485 79.6838C19.5677 79.1533 19.8893 78.6711 20.295 78.2649C20.7007 77.8587 21.1824 77.5365 21.7127 77.3166C22.243 77.0968 22.8115 76.9836 23.3855 76.9836H120.605C121.179 76.9836 121.748 77.0968 122.278 77.3166C122.808 77.5365 123.29 77.8587 123.696 78.2649C124.101 78.6711 124.423 79.1533 124.642 79.6838C124.861 80.2144 124.974 80.783 124.973 81.357V125.153H19.0176Z" fill="#F5F5F5"/>
<path d="M33.3262 76.9838V44.697C33.3262 43.5385 33.7864 42.4275 34.6055 41.6084C35.4247 40.7892 36.5357 40.329 37.6941 40.329H106.306C107.464 40.329 108.575 40.7892 109.394 41.6084C110.214 42.4275 110.674 43.5385 110.674 44.697V76.9838H33.3262Z" fill="#FFCDD2"/>
<path d="M80.1898 20.8796C80.9463 21.5366 81.9145 21.8984 82.9165 21.8984C83.9185 21.8984 84.8867 21.5366 85.6432 20.8796C86.3838 20.1773 86.9199 19.2871 87.1944 18.304C87.4688 17.3209 87.4712 16.2817 87.2015 15.2974C86.5452 11.9122 82.9198 9.5 82.9198 9.5C82.9198 9.5 79.2944 11.9122 78.6348 15.2974C78.3646 16.2815 78.3666 17.3204 78.6404 18.3035C78.9143 19.2866 79.4498 20.1769 80.1898 20.8796Z" fill="#FFD644"/>
<path d="M78.4785 27.1388H87.3607V40.3278H78.4785V27.1388Z" fill="#EE5253"/>
<path d="M58.35 20.8796C59.1064 21.5366 60.0747 21.8984 61.0767 21.8984C62.0786 21.8984 63.0469 21.5366 63.8033 20.8796C64.544 20.1773 65.0801 19.2871 65.3545 18.304C65.6289 17.3209 65.6314 16.2817 65.3616 15.2974C64.7053 11.9122 61.0799 9.5 61.0799 9.5C61.0799 9.5 57.4545 11.9122 56.795 15.2974C56.5248 16.2815 56.5267 17.3204 56.8006 18.3035C57.0744 19.2866 57.6099 20.1769 58.35 20.8796Z" fill="#FFD644"/>
<path d="M56.6387 27.1388H65.5209V40.3278H56.6387V27.1388Z" fill="#EE5253"/>
<path d="M110.673 44.6981V57.2341C109.195 58.6764 107.212 59.4838 105.148 59.4838C103.083 59.4838 101.1 58.6764 99.6222 57.2341C98.1446 55.7917 96.1616 54.9844 94.0967 54.9844C92.0319 54.9844 90.0489 55.7917 88.5713 57.2341C87.0937 58.6764 85.1107 59.4838 83.0458 59.4838C80.981 59.4838 78.998 58.6764 77.5204 57.2341C76.0428 55.7917 74.0598 54.9844 71.9949 54.9844C69.9301 54.9844 67.9471 55.7917 66.4695 57.2341C64.994 58.6762 63.0127 59.4836 60.9495 59.4836C58.8863 59.4836 56.905 58.6762 55.4295 57.2341C53.9519 55.7917 51.9689 54.9844 49.904 54.9844C47.8392 54.9844 45.8562 55.7917 44.3786 57.2341C42.8992 58.673 40.9169 59.4781 38.8531 59.4781C36.7894 59.4781 34.807 58.673 33.3277 57.2341V44.6981C33.3277 43.5396 33.7879 42.4286 34.607 41.6095C35.4262 40.7903 36.5372 40.3301 37.6956 40.3301H106.305C107.464 40.3301 108.575 40.7903 109.394 41.6095C110.213 42.4286 110.673 43.5396 110.673 44.6981ZM124.978 81.3561V94.034C123.406 95.5746 121.293 96.4376 119.092 96.4376C116.891 96.4376 114.778 95.5746 113.207 94.034C111.631 92.5006 109.519 91.6426 107.321 91.6426C105.122 91.6426 103.01 92.5006 101.435 94.034C99.8631 95.5746 97.75 96.4376 95.5491 96.4376C93.3482 96.4376 91.235 95.5746 89.6633 94.034C88.0856 92.5004 85.9722 91.6425 83.772 91.6425C81.5718 91.6425 79.4584 92.5004 77.8807 94.034C76.309 95.5746 74.1958 96.4376 71.9949 96.4376C69.794 96.4376 67.6809 95.5746 66.1091 94.034C64.5336 92.5006 62.4218 91.6426 60.2233 91.6426C58.0248 91.6426 55.913 92.5006 54.3375 94.034C52.7657 95.5746 50.6526 96.4376 48.4517 96.4376C46.2508 96.4376 44.1376 95.5746 42.5659 94.034C40.9904 92.5006 38.8786 91.6426 36.6801 91.6426C34.4815 91.6426 32.3698 92.5006 30.7943 94.034C29.2192 95.5725 27.1048 96.4338 24.903 96.4338C22.7012 96.4338 20.5868 95.5725 19.0117 94.034V81.3561C19.0137 80.1963 19.4761 79.0849 20.2972 78.2658C21.1182 77.4468 22.2309 76.9872 23.3906 76.9881H120.61C121.769 76.9881 122.88 77.4483 123.699 78.2674C124.518 79.0866 124.978 80.1976 124.978 81.3561Z" fill="#F38A00"/>
<path d="M19.0176 110.792H124.983V125.147H19.0176V110.792Z" fill="#FFCDD2"/>
</svg>
