<svg width="26" height="27" viewBox="0 0 26 27" fill="none" xmlns="http://www.w3.org/2000/svg">
<g clip-path="url(#clip0_1410_59764)">
<rect y="0.5" width="26" height="26" rx="4" fill="#458500"/>
<path fill-rule="evenodd" clip-rule="evenodd" d="M6.20577 12.4726C5.40534 11.7114 4.13941 11.7432 3.37823 12.5436V12.5436C2.61706 13.344 2.64887 14.61 3.4493 15.3712L7.07255 18.8167L8.52186 20.195C9.32228 20.9561 10.5882 20.9243 11.3494 20.1239L23.4432 7.40643C24.2044 6.60601 24.1726 5.34008 23.3722 4.5789V4.5789C22.5717 3.81772 21.3058 3.84954 20.5446 4.64997L11.2073 14.4688C10.4461 15.2693 9.18015 15.3011 8.37972 14.5399L6.20577 12.4726Z" fill="white"/>
</g>
<defs>
<clipPath id="clip0_1410_59764">
<rect width="26" height="26" fill="white" transform="translate(0 0.5)"/>
</clipPath>
</defs>
</svg>
