<svg width="16" height="16" viewBox="0 0 16 16" fill="none" xmlns="http://www.w3.org/2000/svg">
<circle cx="8.00065" cy="7.99998" r="5.91667" stroke="#666666" stroke-width="1.5"/>
<path d="M4 4.90909L4.36364 4.18182L6.90909 2V2.72727L8 3.09091L8.72727 3.81818V4.90909L8 5.63636L7.63636 6.36364H6.54545L5.81818 7.09091L7.27273 8.54545L6.90909 8.90909L4.36364 8.18182L4 6.72727V4.90909Z" fill="#666666"/>
<path d="M8 11.4545H8.72727L8.36364 11.8182L8 12.1818V12.5455L7.63636 13.2727V14H9.09091L9.45455 13.6364L9.81818 12.9091L10.5455 12.5455L11.2727 11.8182L11.6364 11.0909L12 10.3636V9.63636L11.6364 9.27273H10.9091H10.5455L10.1818 8.90909L9.45455 8.18182H9.09091H8.72727L8.36364 8.54545L8 8.90909L7.63636 9.27273L7.27273 9.63636V10.3636L7.63636 10.7273L8 11.4545Z" fill="#666666"/>
<path d="M12.6667 4.33331L12.3333 4.66665L12 5.33331L12.3333 5.99998V6.66665V7.33331V7.99998L13 8.66665H14L13.6667 7.33331V5.99998L12.6667 4.33331Z" fill="#666666"/>
<path d="M7.66732 7L7.33398 7.33333V7.66667H8.00065H8.66732L8.33398 7.33333L7.66732 7Z" fill="#666666"/>
</svg>
