<svg width="24" height="24" viewBox="0 0 24 24" fill="none" xmlns="http://www.w3.org/2000/svg">
<path fill-rule="evenodd" clip-rule="evenodd" d="M18.9892 12.1486L18.997 12.0821L19 11.9809L18.9962 11.9108L18.9799 11.7994L18.9504 11.688L18.9065 11.5769L18.8542 11.4794L18.7874 11.3833C18.7625 11.3516 18.7358 11.3215 18.7073 11.293L12.7073 5.29299C12.3168 4.90246 11.6836 4.90246 11.2931 5.29299C10.9326 5.65347 10.9049 6.2207 11.2099 6.61299L11.2931 6.7072L15.587 11.0001H6.00018C5.48734 11.0001 5.06467 11.3861 5.00691 11.8835L5.00018 12.0001C5.00018 12.5129 5.38622 12.9356 5.88356 12.9934L6.00018 13.0001H15.586L11.2931 17.293C10.9326 17.6535 10.9049 18.2207 11.2099 18.613L11.2931 18.7072C11.6536 19.0677 12.2208 19.0954 12.6131 18.7904L12.7073 18.7072L18.7073 12.7072L18.7506 12.6611L18.8038 12.5954L18.8755 12.4842L18.929 12.3714L18.9643 12.2661L18.9892 12.1486Z" fill="white"/>
</svg>
