<svg width="24" height="24" viewBox="0 0 24 24" fill="none" xmlns="http://www.w3.org/2000/svg">
<path fill-rule="evenodd" clip-rule="evenodd" d="M5.01084 12.1486L5.003 12.0821L5 11.9809L5.00379 11.9108L5.02006 11.7994L5.04956 11.688L5.09349 11.5769L5.14582 11.4794L5.21261 11.3833C5.23749 11.3516 5.26425 11.3215 5.29271 11.293L11.2927 5.29299C11.6832 4.90246 12.3164 4.90246 12.7069 5.29299C13.0674 5.65347 13.0951 6.2207 12.7901 6.61299L12.7069 6.7072L8.413 11.0001H17.9998C18.5127 11.0001 18.9353 11.3861 18.9931 11.8835L18.9998 12.0001C18.9998 12.5129 18.6138 12.9356 18.1164 12.9934L17.9998 13.0001H8.414L12.7069 17.293C13.0674 17.6535 13.0951 18.2207 12.7901 18.613L12.7069 18.7072C12.3464 19.0677 11.7792 19.0954 11.3869 18.7904L11.2927 18.7072L5.29271 12.7072L5.24939 12.6611L5.19615 12.5954L5.12449 12.4842L5.07105 12.3714L5.03566 12.2661L5.01084 12.1486Z" fill="#333333"/>
</svg>
