<svg width="65" height="22" viewBox="0 0 65 22" fill="none" xmlns="http://www.w3.org/2000/svg">
<path fill-rule="evenodd" clip-rule="evenodd" d="M54.5981 18.2914C55.2107 18.675 56.0557 18.9029 56.8715 18.9029C59.251 18.9029 60.6715 17.2842 60.6715 14.5732C60.6715 11.8644 59.2632 10.1815 56.9962 10.1815C56.0633 10.1815 55.2568 10.4479 54.5981 10.9734V18.2914ZM54.5981 8.12423C55.4202 7.54492 56.4877 7.25117 57.775 7.25117C61.7499 7.25117 64.3183 10.0398 64.3183 14.3554C64.3183 18.9679 61.4649 21.8334 56.8715 21.8334C55.1695 21.8334 53.42 21.4221 52.3059 20.7605C51.0448 20.0169 51.0448 19.0869 51.0448 18.1872V1.64448C51.0448 0.976187 51.3531 0.179138 52.8215 0.179138C54.29 0.179138 54.5981 0.976187 54.5981 1.64448V8.12423ZM4.56109 3.01519C4.56109 4.18909 3.69673 5.0412 2.50613 5.0412C1.31535 5.0412 0.451172 4.18909 0.451172 3.01519C0.451172 1.84146 1.31535 0.989174 2.50613 0.989174C3.69673 0.989174 4.56109 1.84146 4.56109 3.01519ZM0.729464 8.77886C0.729464 8.11039 1.03759 7.31352 2.50613 7.31352C3.97449 7.31352 4.2828 8.11039 4.2828 8.77886V20.2748C4.2828 20.9429 3.97449 21.7398 2.50613 21.7398C1.03759 21.7398 0.729464 20.9429 0.729464 20.2748V8.77886ZM21.8839 0.989174C20.6845 0.989174 20.0762 1.48218 20.0762 2.45452V9.43207H11.0432V2.45452C11.0432 1.78622 10.735 0.989174 9.26649 0.989174C8.06701 0.989174 7.45874 1.48218 7.45874 2.45452V20.2748C7.45874 21.2466 8.06701 21.7398 9.26649 21.7398C10.735 21.7398 11.0432 20.9429 11.0432 20.2748V12.6428H20.0762V20.2748C20.0762 21.2466 20.6845 21.7398 21.8839 21.7398C23.3525 21.7398 23.6606 20.9429 23.6606 20.2748V2.45452C23.6606 1.78622 23.3525 0.989174 21.8839 0.989174ZM35.1857 13.0458C35.1526 11.1526 34.1221 10.0259 32.4147 10.0259C30.7666 10.0259 29.7395 11.0693 29.4392 13.0458H35.1857ZM35.6071 18.1367C36.082 17.8654 36.4217 17.6879 36.8075 17.6879C37.8393 17.6879 38.3035 18.6177 38.3035 19.2776C38.3035 19.8122 37.9732 20.2764 37.2932 20.6975C36.1003 21.451 34.616 21.8334 32.8819 21.8334C28.5312 21.8334 25.9337 19.1192 25.9337 14.5733C25.9337 10.0686 28.502 7.15759 32.477 7.15759C36.1094 7.15759 38.6463 9.73308 38.6463 13.4207C38.6463 15.5245 37.7006 15.6959 36.5581 15.6959H29.4722C29.8175 17.7416 31.0164 18.7782 33.0377 18.7782C33.9992 18.7782 34.8877 18.5564 35.6071 18.1367ZM48.0857 7.25114C46.4243 7.25114 45.077 8.04108 44.2546 9.48565V8.78237C44.2713 8.34601 44.1583 7.99864 43.9186 7.74947C43.6403 7.46034 43.1976 7.31347 42.6026 7.31347C41.4649 7.31347 40.8883 7.80666 40.8883 8.77881V20.2748C40.8883 20.9429 41.1962 21.7397 42.6649 21.7397C44.1333 21.7397 44.4416 20.9429 44.4416 20.2748V12.3536C45.106 11.0995 46.0787 10.586 47.9012 10.524C49.1172 10.4921 49.6132 10.0135 49.6132 8.87223C49.6132 7.73615 49.1564 7.25114 48.0857 7.25114ZM62.9632 1.64372C62.9632 1.75986 62.8979 1.80941 62.7446 1.80941H62.504V1.47802H62.7404C62.8988 1.47802 62.9632 1.52579 62.9632 1.64372ZM63.4236 2.68038L63.0471 2.11935C63.257 2.03748 63.3724 1.8693 63.3724 1.64375C63.3724 1.31413 63.1394 1.11736 62.7491 1.11736H62.1806C62.0951 1.11736 62.0774 1.16868 62.0774 1.21166V2.71909C62.0774 2.78178 62.112 2.81357 62.1806 2.81357H62.4008C62.4693 2.81357 62.504 2.78178 62.504 2.71909V2.17014H62.621L62.9984 2.74466C63.0382 2.79563 63.0721 2.81357 63.1282 2.81357H63.3355C63.3809 2.81357 63.4125 2.80025 63.4289 2.77379C63.4443 2.74875 63.4426 2.71803 63.4236 2.68038ZM61.3619 1.96555C61.3619 2.71109 61.9703 3.31758 62.7183 3.31758C63.4637 3.31758 64.0702 2.71109 64.0702 1.96555C64.0702 1.22018 63.4637 0.613688 62.7183 0.613688C61.9703 0.613688 61.3619 1.22018 61.3619 1.96555ZM61.0507 1.96555C61.0507 1.04614 61.7987 0.298108 62.7183 0.298108C63.6376 0.298108 64.3856 1.04614 64.3856 1.96555C64.3856 2.88479 63.6376 3.63282 62.7183 3.63282C61.7987 3.63282 61.0507 2.88479 61.0507 1.96555Z" fill="white"/>
</svg>
