<svg width="24" height="24" viewBox="0 0 24 24" fill="none" xmlns="http://www.w3.org/2000/svg">
<path fill-rule="evenodd" clip-rule="evenodd" d="M11 2.00012C15.9706 2.00012 20 6.02956 20 11.0001C20 13.1249 19.2637 15.0777 18.0323 16.6173L21.7071 20.293C22.0976 20.6835 22.0976 21.3167 21.7071 21.7072C21.3466 22.0677 20.7794 22.0954 20.3871 21.7904L20.2929 21.7072L16.6172 18.0324C15.0776 19.2638 13.1248 20.0001 11 20.0001C6.02944 20.0001 2 15.9707 2 11.0001C2 6.02956 6.02944 2.00012 11 2.00012ZM11 4.00022C7.13396 4.00022 3.99995 7.13422 3.99995 11.0002C3.99995 14.8662 7.13396 18.0002 11 18.0002C14.8659 18.0002 18 14.8662 18 11.0002C18 7.13422 14.8659 4.00022 11 4.00022Z" fill="#666666"/>
</svg>
