<svg width="24" height="24" viewBox="0 0 24 24" fill="none" xmlns="http://www.w3.org/2000/svg">
<path fill-rule="evenodd" clip-rule="evenodd" d="M13 6C13 6.20486 13.0206 6.40493 13.0597 6.59825L7.91169 9.68787C7.39262 9.25822 6.72646 9 6 9C4.34315 9 3 10.3431 3 12C3 13.6569 4.34315 15 6 15C6.72569 15 7.39121 14.7423 7.91004 14.3135L13.0596 17.4024C13.0205 17.5955 13 17.7954 13 18C13 19.6569 14.3432 21 16 21C17.6569 21 19 19.6569 19 18C19 16.3431 17.6569 15 16 15C15.2738 15 14.6078 15.2581 14.0888 15.6875L8.94015 12.5992C8.9794 12.4056 9 12.2052 9 12C9 11.7956 8.97955 11.5959 8.94058 11.4029L14.0893 8.31289C14.6082 8.74209 15.274 9 16 9C17.6569 9 19 7.65685 19 6C19 4.34315 17.6569 3 16 3C14.3432 3 13 4.34315 13 6ZM17 6.00009C17 6.55238 16.5523 7.00009 16 7.00009C15.4477 7.00009 15 6.55238 15 6.00009C15 5.44781 15.4477 5.00009 16 5.00009C16.5523 5.00009 17 5.44781 17 6.00009ZM17 18.0001C17 18.5524 16.5523 19.0001 16 19.0001C15.4477 19.0001 15 18.5524 15 18.0001C15 17.4478 15.4477 17.0001 16 17.0001C16.5523 17.0001 17 17.4478 17 18.0001ZM5.99995 13.0001C6.55224 13.0001 6.99995 12.5524 6.99995 12.0001C6.99995 11.4478 6.55224 11.0001 5.99995 11.0001C5.44767 11.0001 4.99995 11.4478 4.99995 12.0001C4.99995 12.5524 5.44767 13.0001 5.99995 13.0001Z" fill="#F38A00"/>
</svg>
