<svg width="24" height="25" viewBox="0 0 24 25" fill="none" xmlns="http://www.w3.org/2000/svg">
<path fill-rule="evenodd" clip-rule="evenodd" d="M3 4.49994C2.44772 4.49994 2 4.05222 2 3.49994C2 2.94765 2.44772 2.49994 3 2.49994H3.13776C4.71168 2.49994 6.018 3.71628 6.13014 5.2862L6.86478 15.5712C6.90216 16.0945 7.3376 16.4999 7.86224 16.4999H15.6459C16.0548 16.4999 16.4225 16.251 16.5744 15.8713L18.9744 9.87133C19.1795 9.35855 18.9301 8.77658 18.4173 8.57146C18.2992 8.52421 18.1732 8.49994 18.0459 8.49994H9C8.44771 8.49994 8 8.05222 8 7.49994C8 6.94765 8.44771 6.49994 9 6.49994H18.0459C18.4276 6.49994 18.8057 6.57276 19.1601 6.71451C20.6985 7.32985 21.4467 9.07576 20.8314 10.6141L18.4314 16.6141C17.9758 17.7531 16.8726 18.4999 15.6459 18.4999H7.86224C6.28832 18.4999 4.982 17.2836 4.86986 15.7137L4.13522 5.42869C4.09784 4.90539 3.6624 4.49994 3.13776 4.49994H3ZM7.50005 22.4999C6.67162 22.4999 6.00005 21.8283 6.00005 20.9999C6.00005 20.1715 6.67162 19.4999 7.50005 19.4999C8.32847 19.4999 9.00005 20.1715 9.00005 20.9999C9.00005 21.8283 8.32847 22.4999 7.50005 22.4999ZM15.5 22.4999C14.6716 22.4999 14 21.8283 14 20.9999C14 20.1715 14.6716 19.4999 15.5 19.4999C16.3284 19.4999 17 20.1715 17 20.9999C17 21.8283 16.3284 22.4999 15.5 22.4999Z" fill="#FAFAFA"/>
</svg>
