<svg width="16" height="16" viewBox="0 0 16 16" fill="none" xmlns="http://www.w3.org/2000/svg">
<path fill-rule="evenodd" clip-rule="evenodd" d="M7.99935 1.33337C10.9449 1.33337 13.3327 3.72119 13.3327 6.66671C13.3327 8.88893 11.5549 11.5556 7.99935 14.6667C4.44379 11.5556 2.66602 8.88893 2.66602 6.66671C2.66602 3.72119 5.05383 1.33337 7.99935 1.33337ZM7.99932 2.66677C5.79018 2.66677 3.99932 4.45763 3.99932 6.66677C3.99932 8.24186 5.30248 10.3437 7.99932 12.8693C10.6962 10.3437 11.9993 8.24186 11.9993 6.66677C11.9993 4.45763 10.2085 2.66677 7.99932 2.66677ZM7.99938 3.99998C9.47214 3.99998 10.666 5.19389 10.666 6.66665C10.666 8.1394 9.47214 9.33331 7.99938 9.33331C6.52662 9.33331 5.33271 8.1394 5.33271 6.66665C5.33271 5.19389 6.52662 3.99998 7.99938 3.99998ZM7.99935 5.33337C7.26297 5.33337 6.66601 5.93033 6.66601 6.66671C6.66601 7.40309 7.26297 8.00004 7.99935 8.00004C8.73573 8.00004 9.33268 7.40309 9.33268 6.66671C9.33268 5.93033 8.73573 5.33337 7.99935 5.33337Z" fill="#FFEA00"/>
</svg>
