<svg width="24" height="24" viewBox="0 0 24 24" fill="none" xmlns="http://www.w3.org/2000/svg">
<path fill-rule="evenodd" clip-rule="evenodd" d="M16 15.9999C18.7614 15.9999 21 18.2385 21 20.9999C21 21.5522 20.5523 21.9999 20 21.9999C19.4477 21.9999 19 21.5522 19 20.9999C19 19.343 17.6569 17.9999 16 17.9999H8C6.34315 17.9999 5 19.343 5 20.9999C5 21.5522 4.55228 21.9999 4 21.9999C3.44772 21.9999 3 21.5522 3 20.9999C3 18.2385 5.23858 15.9999 8 15.9999H16ZM12 1.99994C15.3137 1.99994 18 4.68623 18 7.99994C18 11.3136 15.3137 13.9999 12 13.9999C8.68629 13.9999 6 11.3136 6 7.99994C6 4.68623 8.68629 1.99994 12 1.99994ZM12 3.99989C9.79082 3.99989 7.99995 5.79075 7.99995 7.99989C7.99995 10.209 9.79082 11.9999 12 11.9999C14.2091 11.9999 16 10.209 16 7.99989C16 5.79075 14.2091 3.99989 12 3.99989Z" fill="white"/>
</svg>
