<svg width="25" height="25" viewBox="0 0 25 25" fill="none" xmlns="http://www.w3.org/2000/svg">
<path fill-rule="evenodd" clip-rule="evenodd" d="M16.3631 7.41039C16.8511 6.52138 16.8765 5.40647 16.3324 4.46406C15.5039 3.02919 13.6692 2.53756 12.2343 3.36599C12.0837 3.45292 11.9434 3.55114 11.8138 3.65895C10.6108 2.94548 9.06848 2.88437 7.7702 3.63394C6.47191 4.3835 5.75367 5.74976 5.77008 7.14827C5.61191 7.20661 5.45668 7.27905 5.3061 7.36599C3.87122 8.19441 3.37959 10.0292 4.20802 11.4641C4.75211 12.4065 5.73028 12.942 6.74416 12.9639C6.73709 13.5699 6.93904 14.1679 7.25384 14.6519C8.11794 15.9806 9.73047 18.2752 11.6006 19.9953C12.533 20.8529 13.5877 21.6227 14.6984 22.031C15.8366 22.4494 17.0887 22.5026 18.2701 21.8205C19.4516 21.1384 20.0316 20.0274 20.2384 18.8325C20.4401 17.6664 20.3008 16.3682 20.0243 15.1318C19.4697 12.6523 18.2888 10.1085 17.5702 8.6958C17.3084 8.18117 16.8915 7.70731 16.3631 7.41039ZM11.2283 5.72815C10.6072 5.06532 9.58969 4.89285 8.7702 5.36599C7.95071 5.83912 7.59131 6.80656 7.85478 7.67586L8.15368 8.66203L9.12722 8.9919C9.65251 9.1699 10.2446 9.1301 10.7613 8.8352C10.7642 8.8335 10.7672 8.83179 10.7701 8.83008C10.7731 8.82837 10.7761 8.82665 10.7791 8.82493C11.2928 8.52488 11.6233 8.03205 11.7318 7.48813L11.9329 6.48009L11.2283 5.72815ZM11.7822 10.5552C13.309 9.67483 14.3629 9.28427 15.0238 9.11329C15.1636 9.07712 15.2814 9.09678 15.3977 9.16204C15.5269 9.23458 15.6732 9.3778 15.7876 9.60259C15.9005 9.82451 16.0235 10.0723 16.1527 10.3413L12.7703 12.2941C12.292 12.5702 12.1281 13.1818 12.4043 13.6601C12.6804 14.1384 13.292 14.3023 13.7703 14.0261L16.9701 12.1787C17.4047 13.2424 17.8164 14.4231 18.0725 15.5683C18.3225 16.6864 18.4058 17.6928 18.2676 18.4916C18.1344 19.2615 17.8121 19.7755 17.2701 20.0884C16.7282 20.4013 16.1218 20.4234 15.3885 20.1538C14.7501 19.9192 14.0631 19.4763 13.3604 18.8818L14.9041 17.9905C15.3824 17.7144 15.5463 17.1028 15.2701 16.6245C14.994 16.1462 14.3824 15.9823 13.9041 16.2584L11.8733 17.4309C10.6425 16.0804 9.58494 14.5679 8.93045 13.5615C8.79295 13.3501 8.74207 13.1518 8.74387 13.0036C8.7455 12.8703 8.78737 12.7584 8.88861 12.6554C9.36711 12.1686 10.2323 11.4511 11.7581 10.5691C11.7622 10.5668 11.7662 10.5645 11.7702 10.5621C11.7742 10.5598 11.7782 10.5575 11.7822 10.5552ZM7.80636 9.95062L7.79543 9.00905L6.851 8.96482C6.66719 8.95622 6.47937 8.998 6.3061 9.09804C5.8278 9.37418 5.66393 9.98577 5.94007 10.4641C6.21621 10.9424 6.8278 11.1062 7.3061 10.8301C7.62936 10.6435 7.81046 10.3033 7.80636 9.95062ZM12.8465 5.50333L12.4126 6.34334L13.2225 6.8236C13.5259 7.00346 13.911 7.01673 14.2343 6.83009C14.7126 6.55395 14.8765 5.94236 14.6003 5.46406C14.3242 4.98577 13.7126 4.8219 13.2343 5.09804C13.061 5.19808 12.9309 5.33984 12.8465 5.50333Z" fill="#CCCCCC"/>
</svg>
