<svg width="25" height="25" viewBox="0 0 25 25" fill="none" xmlns="http://www.w3.org/2000/svg">
<path fill-rule="evenodd" clip-rule="evenodd" d="M16.6952 7.41039C17.1832 6.52138 17.2085 5.40647 16.6644 4.46406C15.836 3.02919 14.0012 2.53756 12.5663 3.36599C12.4158 3.45292 12.2754 3.55114 12.1458 3.65895C10.9428 2.94548 9.40052 2.88437 8.10223 3.63394C6.80394 4.3835 6.0857 5.74976 6.10211 7.14827C5.94394 7.20661 5.78871 7.27905 5.63813 7.36599C4.20325 8.19441 3.71162 10.0292 4.54005 11.4641C5.08414 12.4065 6.06231 12.942 7.07619 12.9639C7.06913 13.5699 7.27107 14.1679 7.58587 14.6519C8.44997 15.9806 10.0625 18.2752 11.9326 19.9953C12.8651 20.8529 13.9197 21.6227 15.0304 22.031C16.1686 22.4494 17.4207 22.5026 18.6022 21.8205C19.7836 21.1384 20.3637 20.0274 20.5704 18.8325C20.7721 17.6664 20.6328 16.3682 20.3563 15.1318C19.8018 12.6523 18.6208 10.1085 17.9022 8.6958C17.6404 8.18117 17.2236 7.70731 16.6952 7.41039ZM11.5603 5.72815C10.9392 5.06532 9.92172 4.89285 9.10223 5.36599C8.28274 5.83912 7.92334 6.80656 8.18681 7.67586L8.48571 8.66203L9.45925 8.9919C9.98455 9.1699 10.5766 9.1301 11.0933 8.8352C11.0963 8.8335 11.0992 8.83179 11.1022 8.83008C11.1052 8.82837 11.1081 8.82665 11.1111 8.82493C11.6249 8.52488 11.9554 8.03205 12.0639 7.48813L12.2649 6.48009L11.5603 5.72815ZM12.1143 10.5552C13.641 9.67483 14.6949 9.28427 15.3558 9.11329C15.4956 9.07712 15.6134 9.09678 15.7297 9.16204C15.8589 9.23458 16.0052 9.3778 16.1196 9.60259C16.2325 9.82451 16.3556 10.0723 16.4847 10.3413L13.1023 12.2941C12.6241 12.5702 12.4602 13.1818 12.7363 13.6601C13.0125 14.1384 13.6241 14.3023 14.1023 14.0261L17.3022 12.1787C17.7367 13.2424 18.1484 14.4231 18.4045 15.5683C18.6546 16.6864 18.7378 17.6928 18.5997 18.4916C18.4665 19.2615 18.1441 19.7755 17.6022 20.0884C17.0602 20.4013 16.4539 20.4234 15.7205 20.1538C15.0822 19.9192 14.3951 19.4763 13.6924 18.8818L15.2361 17.9905C15.7144 17.7144 15.8783 17.1028 15.6022 16.6245C15.326 16.1462 14.7144 15.9823 14.2361 16.2584L12.2053 17.4309C10.9745 16.0804 9.91697 14.5679 9.26248 13.5615C9.12498 13.3501 9.0741 13.1518 9.0759 13.0036C9.07753 12.8703 9.1194 12.7584 9.22064 12.6554C9.69914 12.1686 10.5643 11.4511 12.0902 10.5691C12.0942 10.5668 12.0982 10.5645 12.1022 10.5621C12.1062 10.5598 12.1103 10.5575 12.1143 10.5552ZM8.13839 9.95062L8.12746 9.00905L7.18303 8.96482C6.99922 8.95622 6.8114 8.998 6.63813 9.09804C6.15984 9.37418 5.99596 9.98577 6.2721 10.4641C6.54824 10.9424 7.15984 11.1062 7.63813 10.8301C7.96139 10.6435 8.14249 10.3033 8.13839 9.95062ZM13.1785 5.50333L12.7446 6.34334L13.5546 6.8236C13.8579 7.00346 14.2431 7.01673 14.5663 6.83009C15.0446 6.55395 15.2085 5.94236 14.9324 5.46406C14.6562 4.98577 14.0446 4.8219 13.5663 5.09804C13.3931 5.19808 13.263 5.33984 13.1785 5.50333Z" fill="#CCCCCC"/>
</svg>
