<svg width="24" height="25" viewBox="0 0 24 25" fill="none" xmlns="http://www.w3.org/2000/svg">
<path fill-rule="evenodd" clip-rule="evenodd" d="M16.0292 7.41039C16.5172 6.52138 16.5425 5.40647 15.9984 4.46406C15.17 3.02919 13.3352 2.53756 11.9003 3.36599C11.7497 3.45292 11.6094 3.55114 11.4798 3.65895C10.2768 2.94548 8.7345 2.88437 7.43621 3.63394C6.13793 4.3835 5.41969 5.74976 5.4361 7.14827C5.27792 7.20661 5.12269 7.27905 4.97211 7.36599C3.53723 8.19441 3.04561 10.0292 3.87403 11.4641C4.41812 12.4065 5.3963 12.942 6.41017 12.9639C6.40311 13.5699 6.60505 14.1679 6.91985 14.6519C7.78396 15.9806 9.39648 18.2752 11.2666 19.9953C12.199 20.8529 13.2537 21.6227 14.3644 22.031C15.5026 22.4494 16.7547 22.5026 17.9362 21.8205C19.1176 21.1384 19.6977 20.0274 19.9044 18.8325C20.1061 17.6664 19.9668 16.3682 19.6903 15.1318C19.1357 12.6523 17.9548 10.1085 17.2362 8.6958C16.9744 8.18117 16.5575 7.70731 16.0292 7.41039ZM10.8943 5.72815C10.2732 5.06532 9.2557 4.89285 8.43621 5.36599C7.61672 5.83912 7.25732 6.80656 7.5208 7.67586L7.8197 8.66203L8.79323 8.9919C9.31853 9.1699 9.91057 9.1301 10.4273 8.8352C10.4303 8.8335 10.4332 8.83179 10.4362 8.83008C10.4391 8.82837 10.4421 8.82665 10.4451 8.82493C10.9589 8.52488 11.2893 8.03205 11.3978 7.48813L11.5989 6.48009L10.8943 5.72815ZM11.4482 10.5552C12.975 9.67483 14.0289 9.28427 14.6898 9.11329C14.8296 9.07712 14.9474 9.09678 15.0637 9.16204C15.1929 9.23458 15.3392 9.3778 15.4536 9.60259C15.5665 9.82451 15.6895 10.0723 15.8187 10.3413L12.4363 12.2941C11.958 12.5702 11.7942 13.1818 12.0703 13.6601C12.3464 14.1384 12.958 14.3023 13.4363 14.0261L16.6361 12.1787C17.0707 13.2424 17.4824 14.4231 17.7385 15.5683C17.9886 16.6864 18.0718 17.6928 17.9336 18.4916C17.8005 19.2615 17.4781 19.7755 16.9362 20.0884C16.3942 20.4013 15.7878 20.4234 15.0545 20.1538C14.4162 19.9192 13.7291 19.4763 13.0264 18.8818L14.5701 17.9905C15.0484 17.7144 15.2123 17.1028 14.9361 16.6245C14.66 16.1462 14.0484 15.9823 13.5701 16.2584L11.5393 17.4309C10.3085 16.0804 9.25095 14.5679 8.59647 13.5615C8.45897 13.3501 8.40809 13.1518 8.40989 13.0036C8.41151 12.8703 8.45339 12.7584 8.55462 12.6554C9.03313 12.1686 9.89833 11.4511 11.4241 10.5691C11.4282 10.5668 11.4322 10.5645 11.4362 10.5621C11.4402 10.5598 11.4442 10.5575 11.4482 10.5552ZM7.47238 9.95062L7.46144 9.00905L6.51701 8.96482C6.3332 8.95622 6.14539 8.998 5.97211 9.09804C5.49382 9.37418 5.32994 9.98577 5.60609 10.4641C5.88223 10.9424 6.49382 11.1062 6.97211 10.8301C7.29538 10.6435 7.47647 10.3033 7.47238 9.95062ZM12.5125 5.50333L12.0786 6.34334L12.8885 6.8236C13.1919 7.00346 13.5771 7.01673 13.9003 6.83009C14.3786 6.55395 14.5425 5.94236 14.2663 5.46406C13.9902 4.98577 13.3786 4.8219 12.9003 5.09804C12.727 5.19808 12.5969 5.33984 12.5125 5.50333Z" fill="#458500"/>
</svg>
