<svg width="1440" height="976" viewBox="0 0 1440 976" fill="none" xmlns="http://www.w3.org/2000/svg">
<path opacity="0.5" d="M160 304C160 281.909 142.091 264 120 264H0V344H120C142.091 344 160 326.091 160 304Z" fill="#FECA57"/>
<path opacity="0.5" d="M170 432C197.614 432 220 409.614 220 382C220 354.386 197.614 332 170 332L8.74228e-06 332L0 432L170 432Z" fill="#FFCDD2"/>
<path opacity="0.5" d="M180 232C221.421 232 255 198.421 255 157V32H105L105 157C105 198.421 138.579 232 180 232Z" fill="#C8E6C9"/>
<path opacity="0.4" d="M200 212C200 178.863 226.863 152 260 152H310C315.523 152 320 156.477 320 162V192C320 225.137 293.137 252 260 252H210C204.477 252 200 247.523 200 242V212Z" fill="#2E7D32"/>
<path opacity="0.5" d="M1270 112C1242.39 112 1220 134.386 1220 162C1220 189.614 1242.39 212 1270 212H1440V112H1270Z" fill="#C8E6C9"/>
<path opacity="0.5" d="M1290 362C1290 389.614 1312.39 412 1340 412H1440V312H1340C1312.39 312 1290 334.386 1290 362Z" fill="#B4EFFE"/>
<rect opacity="0.5" x="1160" y="200" width="240" height="80" rx="40" fill="#FECA57"/>
<path opacity="0.5" d="M1340 392C1340 358.863 1313.14 332 1280 332H1230C1224.48 332 1220 336.477 1220 342V372C1220 405.137 1246.86 432 1280 432H1330C1335.52 432 1340 427.523 1340 422V392Z" fill="#F38A00"/>
</svg>
